<?xml version="1.0" standalone="no"?>
<!DOCTYPE svg PUBLIC "-//W3C//DTD SVG 20010904//EN"
 "http://www.w3.org/TR/2001/REC-SVG-20010904/DTD/svg10.dtd">
<svg version="1.0" xmlns="http://www.w3.org/2000/svg"
 width="225.000000pt" height="225.000000pt" viewBox="0 0 225.000000 225.000000"
 preserveAspectRatio="xMidYMid meet">
<metadata>
Created by potrace 1.16, written by Peter Selinger 2001-2019
</metadata>
<g transform="translate(0.000000,225.000000) scale(0.100000,-0.100000)"
fill="#000000" stroke="none">
<path d="M0 1125 l0 -1125 1125 0 1125 0 0 1125 0 1125 -1125 0 -1125 0 0
-1125z m944 401 c74 -31 102 -110 64 -183 -20 -39 -38 -53 -152 -119 -71 -41
-131 -74 -134 -74 -4 0 -61 32 -128 70 -66 39 -126 70 -133 70 -30 0 4 23 181
125 234 135 240 137 302 111z m645 -102 c102 -59 221 -128 265 -153 91 -52
116 -85 116 -154 0 -40 -5 -53 -34 -85 -32 -35 -38 -37 -93 -37 -57 0 -64 4
-318 152 -143 83 -269 163 -280 178 -28 37 -27 114 1 152 29 40 82 65 123 59
18 -3 117 -53 220 -112z m-924 -287 c292 -169 313 -183 335 -219 53 -87 -12
-198 -115 -198 -34 0 -82 24 -298 148 -141 82 -265 157 -276 166 -55 50 -48
140 16 196 33 29 41 32 87 28 43 -4 84 -24 251 -121z m990 -107 c67 -38 128
-70 134 -70 27 0 -9 -24 -197 -132 -171 -98 -203 -113 -240 -112 -105 2 -166
125 -105 210 18 24 254 172 277 173 5 1 64 -30 131 -69z"/>
</g>
</svg>
