<?xml version="1.0" encoding="UTF-8"?>
<svg version="1.1" xmlns="http://www.w3.org/2000/svg" width="65" height="34">
<path d="M0 0 C5.77842375 -0.42694086 9.01496519 0.61396496 13.9375 3.625 C14.52595703 3.95628906 15.11441406 4.28757812 15.72070312 4.62890625 C17.40234375 5.6640625 17.40234375 5.6640625 20 8 C20.37890625 11.2734375 20.37890625 11.2734375 20 14 C18.68 14.33 17.36 14.66 16 15 C16 15.66 16 16.32 16 17 C10.49376557 20.49602186 6.59229145 22.7013076 0 22 C-0.75 19.75 -0.75 19.75 -1 17 C1.28423889 13.95434815 3.22199132 12.53971553 7 12 C7 11.34 7 10.68 7 10 C6.05125 9.731875 5.1025 9.46375 4.125 9.1875 C1 8 1 8 -1 5 C-0.625 2.3125 -0.625 2.3125 0 0 Z " fill="#F6F6F6" transform="translate(36,6)"/>
<path d="M0 0 C0.75 2.25 0.75 2.25 1 5 C-1.28423889 8.04565185 -3.22199132 9.46028447 -7 10 C-7 10.66 -7 11.32 -7 12 C-6.05125 12.226875 -5.1025 12.45375 -4.125 12.6875 C-1 14 -1 14 0.4375 16.4375 C1 19 1 19 0 22 C-6.59229145 22.7013076 -10.49376557 20.49602186 -16 17 C-16 16.34 -16 15.68 -16 15 C-17.32 14.67 -18.64 14.34 -20 14 C-20 12.02 -20 10.04 -20 8 C-18.68 7.67 -17.36 7.34 -16 7 C-16 6.34 -16 5.68 -16 5 C-10.49376557 1.50397814 -6.59229145 -0.7013076 0 0 Z " fill="#F1F1F1" transform="translate(30,6)"/>
<path d="M0 0 C0.86625 0.474375 1.7325 0.94875 2.625 1.4375 C5.85387374 2.93234895 8.49033826 3.58218313 12 4 C11.01 4.33 10.02 4.66 9 5 C9 5.66 9 6.32 9 7 C3.49376557 10.49602186 -0.40770855 12.7013076 -7 12 C-7.75 9.75 -7.75 9.75 -8 7 C-5.71576111 3.95434815 -3.77800868 2.53971553 0 2 C0 1.34 0 0.68 0 0 Z " fill="#EDEDED" transform="translate(43,16)"/>
</svg>
